# xmcd CD database file
#
# Track frame offsets:
#	150
#	12357
#	23319
#	38916
#	62655
#	77613
#	94542
#	107076
#	123153
#	137103
#	148470
#	163233
#	172401
#	183873
#	195171
#	212898
#	225936
#	236256
#	249369
#	273693
#
# Disc length: 3956 seconds
#
# Revision: 0
# Processed by: cddbd v1.5.1PL0 Copyright (c) Steve Scherf et al.
# Submitted via: CDex 1.51
#
DISCID=0a0f7214
DTITLE=Crooners - Crooners attitude
DYEAR=2005
DGENRE=Jazz
TTITLE0=Sway /Dean Martin
TTITLE1=Fly me to the mon /Tom Jones
TTITLE2=Unforgettable /Nat King Cole
TTITLE3=Girls in a sports car /Chris Rea
TTITLE4=Night and day /Frank Sinatra
TTITLE5=Close to you /Ron isley
TTITLE6=Hey there /Sammy Davis Jr
TTITLE7=Misty /Johnny Mathis
TTITLE8=Amor /Ben E King
TTITLE9=Swinging on a star /Bing Crosby
TTITLE10=My favorite things /Tony Bennet
TTITLE11=A wonderful day like today /Frankie Randall
TTITLE12=Happy together /Mel Torme
TTITLE13=More /Andy Williams
TTITLE14=What now my love /Lou Rawls
TTITLE15=Who would like to write me a song /Samy Goz
TTITLE16=What a wonderful world /Louis Armstrong
TTITLE17=Lover come back to me /Bryan Ferry
TTITLE18=Route 66 /Ray Charles
TTITLE19=What a difference a day made /Jamie Cullum
EXTD=YEAR: 2005
EXTT0=
EXTT1=
EXTT2=
EXTT3=
EXTT4=
EXTT5=
EXTT6=
EXTT7=
EXTT8=
EXTT9=
EXTT10=
EXTT11=
EXTT12=
EXTT13=
EXTT14=
EXTT15=
EXTT16=
EXTT17=
EXTT18=
EXTT19=
PLAYORDER=
